<svg xmlns="http://www.svg.org/2000/svg" viewBox="0 0 24 24" fill="none" stroke="currentColor" stroke-width="1.5" stroke-linecap="round" stroke-linejoin="round">
  <path
    d="M12 21.5s7-3.5 7-9V5l-7-3-7 3v7.5c0 5.5 7 9 7 9z"
    fill="rgba(16, 185, 129, 0.05)"
    stroke="#10b981"
    stroke-width="1.5"
  />
  <path
    d="M12 6.2c-2.7 0-4.9 2.2-4.9 4.9 0 2.2 1.4 4.1 3.4 4.7.25.04.35-.11.35-.24 0-.12-.004-.45-.006-.88-1.37.3-1.66-.66-1.66-.66-.22-.57-.55-.73-.55-.73-.45-.31.03-.3.03-.3.5.03.76.51.76.51.44 1.01 1.14.75 1.43.61 0-.31.13-.53.26-.65-1.1-.12-2.25-.55-2.25-2.43 0-.54.19-.98.51-1.32-.05-.13-.22-.63.05-1.3 0 0 .41-.13 1.36.51.39-.11.82-.17 1.23-.17.41 0 .84.06 1.23.17.95-.64 1.36-.51 1.36-.51.27.67.1 1.17.05 1.3.32.34.51.78.51 1.32 0 1.88-1.15 2.3-2.25 2.43.18.15.34.46.34.93 0 .67-.006 1.2-.006 1.37 0 .13.09.29.35.24 2-0.66 3.4-2.5 3.4-4.7 0-2.7-2.2-4.9-4.9-4.9z"
    fill="#10b981"
    stroke="none"
  />
</svg>
